<svg width="40" height="40" viewBox="0 0 40 40" fill="none" xmlns="http://www.w3.org/2000/svg">
<circle cx="20" cy="20" r="20" fill="#B39DDB"/>
<g clip-path="url(#clip0_982_2355)">
<path d="M23.904 21.0506L21.7827 23.1719L27.7789 29.1681L29.9002 27.0468L23.904 21.0506Z" fill="#424242"/>
<path d="M25.5 18C27.43 18 29 16.43 29 14.5C29 13.92 28.84 13.38 28.59 12.9L25.89 15.6L24.4 14.11L27.1 11.41C26.62 11.16 26.08 11 25.5 11C23.57 11 22 12.57 22 14.5C22 14.91 22.08 15.3 22.21 15.66L20.36 17.51L18.58 15.73L19.29 15.02L17.88 13.61L20 11.49C18.83 10.32 16.93 10.32 15.76 11.49L12.22 15.03L13.63 16.44H10.81L10.1 17.15L13.64 20.69L14.35 19.98V17.15L15.76 18.56L16.47 17.85L18.25 19.63L10.84 27.04L12.96 29.16L24.34 17.79C24.7 17.92 25.09 18 25.5 18Z" fill="#424242"/>
</g>
<defs>
<clipPath id="clip0_982_2355">
<rect width="24" height="24" fill="white" transform="translate(8 8)"/>
</clipPath>
</defs>
</svg>
